<svg xmlns="http://www.w3.org/2000/svg" height="40" fill="none" viewBox="0 0 136 24" focusable="false" aria-label="localthreat">
  <path fill="currentColor" d="M37.07 18.912a.798.798 0 01-.562-.218.803.803 0 01-.217-.563V7.107h-1.648a.37.37 0 01-.38-.381V5.38a.37.37 0 01.38-.381h3.042c.217 0 .398.079.543.236a.712.712 0 01.235.545v11.024h1.647c.109 0 .2.037.272.11a.37.37 0 01.108.272v1.344a.37.37 0 01-.38.381h-3.04zM46.227 19.148a4.339 4.339 0 01-2.172-.563 4.38 4.38 0 01-1.557-1.562 4.105 4.105 0 01-.58-2.125V12.52c0-.763.194-1.471.58-2.125a4.237 4.237 0 011.557-1.544 4.233 4.233 0 012.172-.58c.784 0 1.503.193 2.154.58.664.376 1.189.89 1.575 1.544.386.654.58 1.362.58 2.125v2.38c0 .762-.194 1.47-.58 2.124a4.337 4.337 0 01-1.575 1.562 4.24 4.24 0 01-2.154.563zm0-2.107a2.04 2.04 0 001.503-.617c.422-.424.633-.932.633-1.526V12.52c0-.593-.211-1.096-.633-1.507a2.012 2.012 0 00-1.503-.636 2.07 2.07 0 00-1.52.636c-.411.411-.616.914-.616 1.507v2.38a2.101 2.101 0 002.136 2.143zM57.029 19.148a4.233 4.233 0 01-2.173-.58 4.337 4.337 0 01-1.557-1.581 4.268 4.268 0 01-.579-2.18V12.61c0-.787.193-1.514.58-2.18a4.337 4.337 0 011.556-1.58 4.233 4.233 0 012.172-.58c.604 0 1.183.126 1.738.38a4.064 4.064 0 011.43 1.036.4.4 0 01.127.29.504.504 0 01-.163.364l-.778.78a.398.398 0 01-.29.128c-.108 0-.211-.055-.308-.164-.47-.472-1.056-.708-1.755-.708a2.07 2.07 0 00-1.521.636c-.41.411-.616.914-.616 1.507v2.38c0 .593.205 1.101.616 1.525.422.412.93.617 1.52.617.7 0 1.286-.236 1.756-.708.097-.109.2-.163.308-.163.109 0 .205.042.29.127l.778.78c.109.11.163.23.163.364a.4.4 0 01-.127.29 4.27 4.27 0 01-1.43 1.054 4.302 4.302 0 01-1.737.363zM65.292 19.148c-1.014 0-1.84-.284-2.48-.853-.628-.582-.942-1.332-.942-2.252 0-.836.29-1.526.87-2.07.578-.558 1.393-.921 2.443-1.09.265-.025.519-.061.76-.11.845-.096 1.358-.17 1.54-.217.446-.073.669-.327.669-.763 0-.448-.187-.805-.561-1.072-.362-.278-.821-.418-1.376-.418-.978 0-1.69.357-2.136 1.072-.097.157-.211.236-.344.236a.364.364 0 01-.236-.073l-1.013-.69a.35.35 0 01-.163-.309c0-.036.012-.09.036-.163.35-.666.869-1.18 1.557-1.544.688-.375 1.466-.563 2.335-.563.797 0 1.497.152 2.1.454a3.273 3.273 0 011.394 1.29c.338.557.507 1.198.507 1.925v6.593a.37.37 0 01-.38.381H68.64a.41.41 0 01-.272-.09.393.393 0 01-.109-.291v-.708c-.832.883-1.822 1.325-2.968 1.325zm.163-1.943c.47 0 .917-.121 1.34-.363.422-.242.76-.557 1.013-.945.265-.4.398-.817.398-1.253v-.363l-1.358.2c-.736.084-1.212.151-1.43.2-.99.181-1.484.61-1.484 1.289 0 .375.139.678.416.908.278.218.646.327 1.105.327zM74.353 18.912a.798.798 0 01-.561-.218.803.803 0 01-.218-.563V7.107h-1.647a.37.37 0 01-.38-.381V5.38a.37.37 0 01.38-.381h3.041c.218 0 .399.079.543.236a.712.712 0 01.236.545v11.024h1.647c.109 0 .2.037.272.11a.37.37 0 01.108.272v1.344a.37.37 0 01-.38.381h-3.041zM83.424 18.912c-.94 0-1.707-.29-2.299-.872-.579-.58-.868-1.344-.868-2.288v-5.213h-1.25a.37.37 0 01-.38-.381V8.887a.37.37 0 01.38-.382h1.25V6.544a.37.37 0 01.38-.382h1.412c.108 0 .199.037.271.11a.37.37 0 01.109.272v1.961h3.06c.108 0 .198.037.27.11a.37.37 0 01.11.272v1.29a.37.37 0 01-.38.38h-3.06v5.104c0 .363.102.654.308.872.217.218.5.327.85.327l1.901.018a.37.37 0 01.38.381v1.272a.37.37 0 01-.38.381h-2.064zM88.572 18.912a.37.37 0 01-.38-.381V5.38a.37.37 0 01.38-.381h1.412a.37.37 0 01.38.381v4.014c.35-.35.748-.623 1.195-.817a3.253 3.253 0 011.376-.309c.748 0 1.406.164 1.973.49.58.315 1.026.763 1.34 1.345.313.569.47 1.229.47 1.98v6.447a.37.37 0 01-.38.381h-1.412a.37.37 0 01-.38-.381v-6.175c0-.642-.163-1.132-.489-1.472-.326-.35-.784-.526-1.376-.526-.712 0-1.279.236-1.701.708-.41.46-.616 1.096-.616 1.907v5.558a.37.37 0 01-.38.381h-1.412zM99.31 18.912a.37.37 0 01-.38-.381v-1.344a.37.37 0 01.38-.382h1.376v-6.247h-1.557a.37.37 0 01-.38-.381v-1.29a.37.37 0 01.38-.382h2.806c.217 0 .398.079.543.236a.712.712 0 01.236.545v.654l.977-.78c.362-.291.676-.491.942-.6a2.25 2.25 0 01.941-.182h.561a.37.37 0 01.38.382v1.398a.371.371 0 01-.38.382h-.471a1.88 1.88 0 00-.814.163c-.23.109-.58.351-1.05.726l-.996.8v4.576h1.792a.369.369 0 01.38.382v1.344a.371.371 0 01-.38.381H99.31zM112.168 18.912a4.234 4.234 0 01-2.173-.581 4.34 4.34 0 01-1.557-1.58 4.27 4.27 0 01-.579-2.18V12.61c0-.787.193-1.514.579-2.18a4.341 4.341 0 011.557-1.58 4.234 4.234 0 012.173-.58c.784 0 1.502.193 2.154.58a4.305 4.305 0 011.575 1.58 4.27 4.27 0 01.579 2.18v1.217a.773.773 0 01-.235.563.736.736 0 01-.543.218h-5.667v.09c0 .594.206 1.102.616 1.526a2.1 2.1 0 001.521.618h2.878c.108 0 .199.036.271.109a.368.368 0 01.109.272v1.308c0 .109-.036.2-.109.272a.367.367 0 01-.271.11h-2.878zm2.136-6.266v-.163c0-.594-.212-1.096-.634-1.508a2.01 2.01 0 00-1.502-.635 2.07 2.07 0 00-1.521.635c-.41.412-.616.915-.616 1.508v.163h4.273zM121.385 19.148c-1.013 0-1.84-.284-2.48-.853-.627-.582-.941-1.332-.941-2.252 0-.836.29-1.526.869-2.07.579-.558 1.394-.921 2.444-1.09.265-.025.519-.061.76-.11.845-.096 1.358-.17 1.539-.217.446-.073.67-.327.67-.763 0-.448-.188-.805-.562-1.072-.362-.278-.82-.418-1.375-.418-.978 0-1.69.357-2.137 1.072-.096.157-.211.236-.344.236a.364.364 0 01-.235-.073l-1.014-.69a.351.351 0 01-.163-.309.59.59 0 01.037-.163c.35-.666.869-1.18 1.557-1.544.687-.375 1.466-.563 2.335-.563.796 0 1.496.152 2.1.454a3.277 3.277 0 011.394 1.29c.338.557.506 1.198.506 1.925v6.593a.371.371 0 01-.38.381h-1.231a.408.408 0 01-.271-.09.391.391 0 01-.109-.291v-.708c-.833.883-1.822 1.325-2.969 1.325zm.163-1.943c.471 0 .917-.121 1.34-.363.422-.242.76-.557 1.014-.945.265-.4.398-.817.398-1.253v-.363l-1.358.2c-.736.084-1.213.151-1.43.2-.99.181-1.484.61-1.484 1.289 0 .375.138.678.416.908.278.218.646.327 1.104.327zM132.836 18.912c-.942 0-1.708-.29-2.299-.872-.58-.58-.869-1.344-.869-2.288v-5.213h-1.249a.372.372 0 01-.381-.381V8.887a.372.372 0 01.381-.382h1.249V6.544a.371.371 0 01.38-.382h1.412c.109 0 .199.037.271.11a.368.368 0 01.109.272v1.961h3.059a.372.372 0 01.381.381v1.29a.372.372 0 01-.381.382h-3.059v5.103c0 .363.103.654.308.872.217.218.501.327.851.327l1.9.018a.372.372 0 01.381.381v1.272a.372.372 0 01-.381.381h-2.063zM25.12 0H1.723C1.005 0 .42.538.42 1.2v16.792c0 .662.584 1.2 1.3 1.2h3.38c.287 0 .522.213.522.482v3.845c0 .425.558.643.886.34l4.311-4.502a.533.533 0 01.39-.16h13.91c.717 0 1.301-.539 1.301-1.2V1.2c0-.662-.584-1.2-1.3-1.2zM14.722 16.31c0 .265-.23.483-.522.483h-1.561c-.287 0-.523-.213-.523-.482v-1.44c0-.266.23-.483.523-.483h1.561c.287 0 .523.213.523.482v1.44zm0-4.794c0 .265-.23.482-.522.482h-1.561c-.287 0-.523-.212-.523-.482v-8.64c0-.264.23-.481.523-.481h1.561c.287 0 .523.212.523.482v8.64z"/>
</svg>
