<svg width="309" height="66" viewBox="0 0 309 66" fill="none" xmlns="http://www.w3.org/2000/svg">
<path d="M62.6985 0H3.30129C1.48168 0 0 1.48086 0 3.29946V49.4789C0 51.2975 1.48168 52.7784 3.30129 52.7784H11.8794C12.6073 52.7784 13.2052 53.3629 13.2052 54.1034V64.6772C13.2052 65.8463 14.6218 66.4439 15.4537 65.6125L26.3973 53.233C26.6443 52.9473 27.0082 52.7914 27.3851 52.7914H62.6985C64.5181 52.7914 65.9998 51.3105 65.9998 49.4919V3.29946C65.9998 1.48086 64.5181 0 62.6985 0ZM36.3012 44.8545C36.3012 45.5819 35.7163 46.1795 34.9755 46.1795H31.0113C30.2835 46.1795 29.6856 45.5949 29.6856 44.8545V40.8925C29.6856 40.1651 30.2705 39.5676 31.0113 39.5676H34.9755C35.7033 39.5676 36.3012 40.1521 36.3012 40.8925V44.8545ZM36.3012 31.6696C36.3012 32.3971 35.7163 32.9946 34.9755 32.9946H31.0113C30.2835 32.9946 29.6856 32.4101 29.6856 31.6696V7.91091C29.6856 7.18347 30.2705 6.58593 31.0113 6.58593H34.9755C35.7033 6.58593 36.3012 7.17048 36.3012 7.91091V31.6696Z" fill="black"/>
<path d="M92.2929 45.5713C91.7649 45.5713 91.3102 45.3953 90.9289 45.0433C90.5769 44.6619 90.4009 44.2073 90.4009 43.6793V16.9714H86.3969C86.1329 16.9714 85.9129 16.8834 85.7369 16.7074C85.5609 16.5314 85.4729 16.3114 85.4729 16.0474V12.7914C85.4729 12.5274 85.5609 12.3074 85.7369 12.1314C85.9129 11.9554 86.1329 11.8674 86.3969 11.8674H93.7889C94.3169 11.8674 94.7569 12.058 95.1089 12.4394C95.4902 12.7914 95.6809 13.2314 95.6809 13.7594V40.4673H99.6849C99.9489 40.4673 100.169 40.5553 100.345 40.7313C100.521 40.9073 100.609 41.1273 100.609 41.3913V44.6473C100.609 44.9113 100.521 45.1313 100.345 45.3073C100.169 45.4833 99.9489 45.5713 99.6849 45.5713H92.2929Z" fill="black"/>
<path d="M112.352 46.1433C110.445 46.1433 108.685 45.6886 107.072 44.7793C105.488 43.8406 104.226 42.5793 103.288 40.9953C102.349 39.4113 101.88 37.6953 101.88 35.8473V30.0833C101.88 28.2353 102.349 26.5193 103.288 24.9353C104.226 23.3513 105.488 22.1047 107.072 21.1953C108.685 20.2567 110.445 19.7873 112.352 19.7873C114.258 19.7873 116.004 20.2567 117.588 21.1953C119.201 22.1047 120.477 23.3513 121.416 24.9353C122.354 26.5193 122.824 28.2353 122.824 30.0833V35.8473C122.824 37.6953 122.354 39.4113 121.416 40.9953C120.477 42.5793 119.201 43.8406 117.588 44.7793C116.004 45.6886 114.258 46.1433 112.352 46.1433ZM112.352 41.0393C113.789 41.0393 115.006 40.5406 116.004 39.5433C117.03 38.5166 117.544 37.2846 117.544 35.8473V30.0833C117.544 28.646 117.03 27.4287 116.004 26.4313C115.006 25.4047 113.789 24.8913 112.352 24.8913C110.914 24.8913 109.682 25.4047 108.656 26.4313C107.658 27.4287 107.16 28.646 107.16 30.0833V35.8473C107.16 37.2846 107.658 38.5166 108.656 39.5433C109.682 40.5406 110.914 41.0393 112.352 41.0393Z" fill="black"/>
<path d="M136.405 46.1433C134.499 46.1433 132.739 45.6739 131.125 44.7353C129.542 43.7966 128.28 42.5206 127.342 40.9073C126.403 39.294 125.934 37.534 125.934 35.6273V30.3033C125.934 28.3967 126.403 26.6367 127.342 25.0233C128.28 23.41 129.542 22.134 131.125 21.1953C132.739 20.2567 134.499 19.7873 136.405 19.7873C137.872 19.7873 139.28 20.0953 140.629 20.7113C141.979 21.298 143.137 22.134 144.105 23.2193C144.311 23.4247 144.413 23.6593 144.413 23.9233C144.413 24.246 144.281 24.5393 144.017 24.8033L142.125 26.6953C141.92 26.9007 141.685 27.0033 141.421 27.0033C141.157 27.0033 140.908 26.8713 140.673 26.6073C139.529 25.4633 138.107 24.8913 136.405 24.8913C134.968 24.8913 133.736 25.4047 132.709 26.4313C131.712 27.4287 131.213 28.646 131.213 30.0833V35.8473C131.213 37.2846 131.712 38.5166 132.709 39.5433C133.736 40.5406 134.968 41.0393 136.405 41.0393C138.107 41.0393 139.529 40.4673 140.673 39.3233C140.908 39.0593 141.157 38.9273 141.421 38.9273C141.685 38.9273 141.92 39.03 142.125 39.2353L144.017 41.1273C144.281 41.3913 144.413 41.6846 144.413 42.0073C144.413 42.2713 144.311 42.506 144.105 42.7113C143.137 43.7966 141.979 44.6473 140.629 45.2633C139.28 45.85 137.872 46.1433 136.405 46.1433Z" fill="black"/>
<path d="M154.29 46.1433C151.826 46.1433 149.816 45.454 148.262 44.0753C146.736 42.6673 145.974 40.8486 145.974 38.6193C145.974 36.5953 146.678 34.9233 148.086 33.6033C149.494 32.254 151.474 31.374 154.026 30.9633C154.671 30.9047 155.287 30.8167 155.874 30.6993C157.927 30.4647 159.174 30.2887 159.614 30.1713C160.699 29.9953 161.242 29.3793 161.242 28.3233C161.242 27.238 160.787 26.3727 159.878 25.7273C158.998 25.0527 157.883 24.7153 156.534 24.7153C154.158 24.7153 152.427 25.5807 151.342 27.3113C151.107 27.6927 150.828 27.8833 150.506 27.8833C150.271 27.8833 150.08 27.8247 149.934 27.7073L147.47 26.0353C147.206 25.8593 147.074 25.61 147.074 25.2873C147.074 25.1993 147.103 25.0673 147.162 24.8913C148.012 23.278 149.274 22.0313 150.946 21.1513C152.618 20.242 154.51 19.7873 156.622 19.7873C158.558 19.7873 160.259 20.154 161.726 20.8873C163.192 21.6207 164.322 22.662 165.114 24.0113C165.935 25.3607 166.346 26.9153 166.346 28.6753V44.6473C166.346 44.9113 166.258 45.1313 166.082 45.3073C165.906 45.4833 165.686 45.5713 165.422 45.5713H162.43C162.166 45.5713 161.946 45.498 161.77 45.3513C161.594 45.1753 161.506 44.9406 161.506 44.6473V42.9313C159.482 45.0726 157.076 46.1433 154.29 46.1433ZM154.686 41.4353C155.83 41.4353 156.915 41.142 157.942 40.5553C158.968 39.9686 159.79 39.206 160.406 38.2673C161.051 37.2993 161.374 36.2873 161.374 35.2313V34.3513L158.074 34.8353C156.284 35.0406 155.126 35.202 154.598 35.3193C152.192 35.7593 150.99 36.8006 150.99 38.4433C150.99 39.3526 151.327 40.086 152.002 40.6433C152.676 41.1713 153.571 41.4353 154.686 41.4353Z" fill="black"/>
<path d="M174.114 45.5713C173.586 45.5713 173.131 45.3953 172.75 45.0433C172.398 44.6619 172.222 44.2073 172.222 43.6793V16.9714H168.218C167.954 16.9714 167.734 16.8834 167.558 16.7074C167.382 16.5314 167.294 16.3114 167.294 16.0474V12.7914C167.294 12.5274 167.382 12.3074 167.558 12.1314C167.734 11.9554 167.954 11.8674 168.218 11.8674H175.61C176.138 11.8674 176.578 12.058 176.93 12.4394C177.311 12.7914 177.502 13.2314 177.502 13.7594V40.4673H181.506C181.77 40.4673 181.99 40.5553 182.166 40.7313C182.342 40.9073 182.43 41.1273 182.43 41.3913V44.6473C182.43 44.9113 182.342 45.1313 182.166 45.3073C181.99 45.4833 181.77 45.5713 181.506 45.5713H174.114Z" fill="black"/>
<path d="M193.963 45.5713C191.675 45.5713 189.812 44.8673 188.375 43.4593C186.967 42.0513 186.263 40.2033 186.263 37.9153V25.2873H183.227C182.963 25.2873 182.743 25.1993 182.567 25.0233C182.391 24.8473 182.303 24.6273 182.303 24.3633V21.2833C182.303 21.0193 182.391 20.7993 182.567 20.6233C182.743 20.4473 182.963 20.3593 183.227 20.3593H186.263V15.6074C186.263 15.3434 186.351 15.1234 186.527 14.9474C186.703 14.7714 186.923 14.6834 187.187 14.6834H190.619C190.883 14.6834 191.103 14.7714 191.279 14.9474C191.455 15.1234 191.543 15.3434 191.543 15.6074V20.3593H198.979C199.243 20.3593 199.463 20.4473 199.639 20.6233C199.815 20.7993 199.903 21.0193 199.903 21.2833V24.4073C199.903 24.6713 199.815 24.8913 199.639 25.0673C199.463 25.2433 199.243 25.3313 198.979 25.3313H191.543V37.6953C191.543 38.5753 191.792 39.2793 192.291 39.8073C192.819 40.3353 193.508 40.5993 194.359 40.5993L198.979 40.6433C199.243 40.6433 199.463 40.7313 199.639 40.9073C199.815 41.0833 199.903 41.3033 199.903 41.5673V44.6473C199.903 44.9113 199.815 45.1313 199.639 45.3073C199.463 45.4833 199.243 45.5713 198.979 45.5713H193.963Z" fill="black"/>
<path d="M204.274 45.5713C204.01 45.5713 203.79 45.4833 203.614 45.3073C203.438 45.1313 203.35 44.9113 203.35 44.6473V12.7914C203.35 12.5274 203.438 12.3074 203.614 12.1314C203.79 11.9554 204.01 11.8674 204.274 11.8674H207.706C207.97 11.8674 208.19 11.9554 208.366 12.1314C208.542 12.3074 208.63 12.5274 208.63 12.7914V22.5153C209.481 21.6647 210.449 21.0047 211.534 20.5353C212.62 20.0367 213.734 19.7873 214.878 19.7873C216.697 19.7873 218.296 20.1833 219.674 20.9753C221.082 21.738 222.168 22.8233 222.93 24.2313C223.693 25.61 224.074 27.2087 224.074 29.0273V44.6473C224.074 44.9113 223.986 45.1313 223.81 45.3073C223.634 45.4833 223.414 45.5713 223.15 45.5713H219.718C219.454 45.5713 219.234 45.4833 219.058 45.3073C218.882 45.1313 218.794 44.9113 218.794 44.6473V29.6873C218.794 28.1327 218.398 26.9447 217.606 26.1233C216.814 25.2727 215.7 24.8473 214.262 24.8473C212.532 24.8473 211.153 25.4193 210.126 26.5633C209.129 27.678 208.63 29.218 208.63 31.1833V44.6473C208.63 44.9113 208.542 45.1313 208.366 45.3073C208.19 45.4833 207.97 45.5713 207.706 45.5713H204.274Z" fill="black"/>
<path d="M228.174 45.5713C227.91 45.5713 227.69 45.4833 227.514 45.3073C227.338 45.1313 227.25 44.9113 227.25 44.6473V41.3913C227.25 41.1273 227.338 40.9073 227.514 40.7313C227.69 40.5553 227.91 40.4673 228.174 40.4673H231.518V25.3313H227.734C227.47 25.3313 227.25 25.2433 227.074 25.0673C226.898 24.8913 226.81 24.6713 226.81 24.4073V21.2833C226.81 21.0193 226.898 20.7993 227.074 20.6233C227.25 20.4473 227.47 20.3593 227.734 20.3593H234.554C235.082 20.3593 235.522 20.55 235.874 20.9313C236.256 21.2833 236.446 21.7233 236.446 22.2513V23.8353L238.822 21.9433C239.702 21.2393 240.465 20.7553 241.11 20.4913C241.756 20.198 242.518 20.0513 243.398 20.0513H244.762C245.026 20.0513 245.246 20.1393 245.422 20.3153C245.598 20.4913 245.686 20.7113 245.686 20.9753V24.3633C245.686 24.6273 245.598 24.8473 245.422 25.0233C245.246 25.1993 245.026 25.2873 244.762 25.2873H243.618C242.856 25.2873 242.196 25.4193 241.638 25.6833C241.081 25.9473 240.23 26.534 239.086 27.4433L236.666 29.3793V40.4673H241.022C241.286 40.4673 241.506 40.5553 241.682 40.7313C241.858 40.9073 241.946 41.1273 241.946 41.3913V44.6473C241.946 44.9113 241.858 45.1313 241.682 45.3073C241.506 45.4833 241.286 45.5713 241.022 45.5713H228.174Z" fill="black"/>
<path d="M257.225 45.5713C255.318 45.5713 253.558 45.102 251.945 44.1633C250.361 43.2246 249.099 41.9486 248.161 40.3353C247.222 38.722 246.753 36.962 246.753 35.0553V30.3033C246.753 28.3967 247.222 26.6367 248.161 25.0233C249.099 23.41 250.361 22.134 251.945 21.1953C253.558 20.2567 255.318 19.7873 257.225 19.7873C259.131 19.7873 260.877 20.2567 262.461 21.1953C264.074 22.134 265.35 23.41 266.289 25.0233C267.227 26.6367 267.697 28.3967 267.697 30.3033V33.2513C267.697 33.7793 267.506 34.234 267.125 34.6153C266.773 34.9673 266.333 35.1433 265.805 35.1433H252.033V35.3633C252.033 36.8006 252.531 38.0326 253.529 39.0593C254.555 40.0566 255.787 40.5553 257.225 40.5553H264.221C264.485 40.5553 264.705 40.6433 264.881 40.8193C265.057 40.9953 265.145 41.2153 265.145 41.4793V44.6473C265.145 44.9113 265.057 45.1313 264.881 45.3073C264.705 45.4833 264.485 45.5713 264.221 45.5713H257.225ZM262.417 30.3913V29.9953C262.417 28.558 261.903 27.3407 260.877 26.3433C259.879 25.3167 258.662 24.8033 257.225 24.8033C255.787 24.8033 254.555 25.3167 253.529 26.3433C252.531 27.3407 252.033 28.558 252.033 29.9953V30.3913H262.417Z" fill="black"/>
<path d="M277.429 46.1433C274.965 46.1433 272.956 45.454 271.401 44.0753C269.876 42.6673 269.113 40.8486 269.113 38.6193C269.113 36.5953 269.817 34.9233 271.225 33.6033C272.633 32.254 274.613 31.374 277.165 30.9633C277.81 30.9047 278.426 30.8167 279.013 30.6993C281.066 30.4647 282.313 30.2887 282.753 30.1713C283.838 29.9953 284.381 29.3793 284.381 28.3233C284.381 27.238 283.926 26.3727 283.017 25.7273C282.137 25.0527 281.022 24.7153 279.673 24.7153C277.297 24.7153 275.566 25.5807 274.481 27.3113C274.246 27.6927 273.968 27.8833 273.645 27.8833C273.41 27.8833 273.22 27.8247 273.073 27.7073L270.609 26.0353C270.345 25.8593 270.213 25.61 270.213 25.2873C270.213 25.1993 270.242 25.0673 270.301 24.8913C271.152 23.278 272.413 22.0313 274.085 21.1513C275.757 20.242 277.649 19.7873 279.761 19.7873C281.697 19.7873 283.398 20.154 284.865 20.8873C286.332 21.6207 287.461 22.662 288.253 24.0113C289.074 25.3607 289.485 26.9153 289.485 28.6753V44.6473C289.485 44.9113 289.397 45.1313 289.221 45.3073C289.045 45.4833 288.825 45.5713 288.561 45.5713H285.569C285.305 45.5713 285.085 45.498 284.909 45.3513C284.733 45.1753 284.645 44.9406 284.645 44.6473V42.9313C282.621 45.0726 280.216 46.1433 277.429 46.1433ZM277.825 41.4353C278.969 41.4353 280.054 41.142 281.081 40.5553C282.108 39.9686 282.929 39.206 283.545 38.2673C284.19 37.2993 284.513 36.2873 284.513 35.2313V34.3513L281.213 34.8353C279.424 35.0406 278.265 35.202 277.737 35.3193C275.332 35.7593 274.129 36.8006 274.129 38.4433C274.129 39.3526 274.466 40.086 275.141 40.6433C275.816 41.1713 276.71 41.4353 277.825 41.4353Z" fill="black"/>
<path d="M303.06 45.5713C300.772 45.5713 298.909 44.8673 297.472 43.4593C296.064 42.0513 295.36 40.2033 295.36 37.9153V25.2873H292.324C292.06 25.2873 291.84 25.1993 291.664 25.0233C291.488 24.8473 291.4 24.6273 291.4 24.3633V21.2833C291.4 21.0193 291.488 20.7993 291.664 20.6233C291.84 20.4473 292.06 20.3593 292.324 20.3593H295.36V15.6074C295.36 15.3434 295.448 15.1234 295.624 14.9474C295.8 14.7714 296.02 14.6834 296.284 14.6834H299.716C299.98 14.6834 300.2 14.7714 300.376 14.9474C300.552 15.1234 300.64 15.3434 300.64 15.6074V20.3593H308.076C308.34 20.3593 308.56 20.4473 308.736 20.6233C308.912 20.7993 309 21.0193 309 21.2833V24.4073C309 24.6713 308.912 24.8913 308.736 25.0673C308.56 25.2433 308.34 25.3313 308.076 25.3313H300.64V37.6953C300.64 38.5753 300.889 39.2793 301.388 39.8073C301.916 40.3353 302.605 40.5993 303.456 40.5993L308.076 40.6433C308.34 40.6433 308.56 40.7313 308.736 40.9073C308.912 41.0833 309 41.3033 309 41.5673V44.6473C309 44.9113 308.912 45.1313 308.736 45.3073C308.56 45.4833 308.34 45.5713 308.076 45.5713H303.06Z" fill="black"/>
</svg>
