<svg width="197" height="42" viewBox="0 0 197 42" fill="none" xmlns="http://www.w3.org/2000/svg">
<rect width="197" height="42" fill="white"/>
<path d="M39.8992 0H2.10083C0.942891 0 0 0.942369 0 2.09966V31.4867C0 32.644 0.942891 33.5864 2.10083 33.5864H7.55967C8.02284 33.5864 8.40331 33.9584 8.40331 34.4295V41.1584C8.40331 41.9024 9.30484 42.2826 9.83419 41.7536L16.7983 33.8757C16.9555 33.6938 17.1871 33.5946 17.4269 33.5946H39.8992C41.0571 33.5946 42 32.6523 42 31.495V2.09966C42 0.942369 41.0571 0 39.8992 0ZM23.1008 28.5439C23.1008 29.0068 22.7286 29.387 22.2572 29.387H19.7345C19.2714 29.387 18.8909 29.015 18.8909 28.5439V26.0226C18.8909 25.5597 19.2631 25.1794 19.7345 25.1794H22.2572C22.7204 25.1794 23.1008 25.5514 23.1008 26.0226V28.5439ZM23.1008 20.1535C23.1008 20.6164 22.7286 20.9966 22.2572 20.9966H19.7345C19.2714 20.9966 18.8909 20.6247 18.8909 20.1535V5.03423C18.8909 4.57132 19.2631 4.19106 19.7345 4.19106H22.2572C22.7204 4.19106 23.1008 4.56305 23.1008 5.03423V20.1535Z" fill="currentColor"/>
<path d="M58.732 29C58.396 29 58.1067 28.888 57.864 28.664C57.64 28.4213 57.528 28.132 57.528 27.796V10.8H54.98C54.812 10.8 54.672 10.744 54.56 10.632C54.448 10.52 54.392 10.38 54.392 10.212V8.14C54.392 7.972 54.448 7.832 54.56 7.72C54.672 7.608 54.812 7.552 54.98 7.552H59.684C60.02 7.552 60.3 7.67333 60.524 7.916C60.7667 8.14 60.888 8.42 60.888 8.756V25.752H63.436C63.604 25.752 63.744 25.808 63.856 25.92C63.968 26.032 64.024 26.172 64.024 26.34V28.412C64.024 28.58 63.968 28.72 63.856 28.832C63.744 28.944 63.604 29 63.436 29H58.732ZM71.4967 29.364C70.2834 29.364 69.1634 29.0747 68.1367 28.496C67.1287 27.8987 66.3261 27.096 65.7287 26.088C65.1314 25.08 64.8327 23.988 64.8327 22.812V19.144C64.8327 17.968 65.1314 16.876 65.7287 15.868C66.3261 14.86 67.1287 14.0667 68.1367 13.488C69.1634 12.8907 70.2834 12.592 71.4967 12.592C72.7101 12.592 73.8207 12.8907 74.8287 13.488C75.8554 14.0667 76.6674 14.86 77.2647 15.868C77.8621 16.876 78.1607 17.968 78.1607 19.144V22.812C78.1607 23.988 77.8621 25.08 77.2647 26.088C76.6674 27.096 75.8554 27.8987 74.8287 28.496C73.8207 29.0747 72.7101 29.364 71.4967 29.364ZM71.4967 26.116C72.4114 26.116 73.1861 25.7987 73.8207 25.164C74.4741 24.5107 74.8007 23.7267 74.8007 22.812V19.144C74.8007 18.2293 74.4741 17.4547 73.8207 16.82C73.1861 16.1667 72.4114 15.84 71.4967 15.84C70.5821 15.84 69.7981 16.1667 69.1447 16.82C68.5101 17.4547 68.1927 18.2293 68.1927 19.144V22.812C68.1927 23.7267 68.5101 24.5107 69.1447 25.164C69.7981 25.7987 70.5821 26.116 71.4967 26.116ZM86.8038 29.364C85.5904 29.364 84.4704 29.0653 83.4438 28.468C82.4358 27.8707 81.6331 27.0587 81.0358 26.032C80.4384 25.0053 80.1398 23.8853 80.1398 22.672V19.284C80.1398 18.0707 80.4384 16.9507 81.0358 15.924C81.6331 14.8973 82.4358 14.0853 83.4438 13.488C84.4704 12.8907 85.5904 12.592 86.8038 12.592C87.7371 12.592 88.6331 12.788 89.4918 13.18C90.3504 13.5533 91.0878 14.0853 91.7038 14.776C91.8344 14.9067 91.8998 15.056 91.8998 15.224C91.8998 15.4293 91.8158 15.616 91.6478 15.784L90.4438 16.988C90.3131 17.1187 90.1638 17.184 89.9958 17.184C89.8278 17.184 89.6691 17.1 89.5198 16.932C88.7918 16.204 87.8864 15.84 86.8038 15.84C85.8891 15.84 85.1051 16.1667 84.4518 16.82C83.8171 17.4547 83.4998 18.2293 83.4998 19.144V22.812C83.4998 23.7267 83.8171 24.5107 84.4518 25.164C85.1051 25.7987 85.8891 26.116 86.8038 26.116C87.8864 26.116 88.7918 25.752 89.5198 25.024C89.6691 24.856 89.8278 24.772 89.9958 24.772C90.1638 24.772 90.3131 24.8373 90.4438 24.968L91.6478 26.172C91.8158 26.34 91.8998 26.5267 91.8998 26.732C91.8998 26.9 91.8344 27.0493 91.7038 27.18C91.0878 27.8707 90.3504 28.412 89.4918 28.804C88.6331 29.1773 87.7371 29.364 86.8038 29.364ZM98.1847 29.364C96.6167 29.364 95.338 28.9253 94.3487 28.048C93.378 27.152 92.8927 25.9947 92.8927 24.576C92.8927 23.288 93.3407 22.224 94.2367 21.384C95.1327 20.5253 96.3927 19.9653 98.0167 19.704C98.4273 19.6667 98.8193 19.6107 99.1927 19.536C100.499 19.3867 101.293 19.2747 101.573 19.2C102.263 19.088 102.609 18.696 102.609 18.024C102.609 17.3333 102.319 16.7827 101.741 16.372C101.181 15.9427 100.471 15.728 99.6127 15.728C98.1007 15.728 96.9993 16.2787 96.3087 17.38C96.1593 17.6227 95.982 17.744 95.7767 17.744C95.6273 17.744 95.506 17.7067 95.4127 17.632L93.8447 16.568C93.6767 16.456 93.5927 16.2973 93.5927 16.092C93.5927 16.036 93.6113 15.952 93.6487 15.84C94.19 14.8133 94.9927 14.02 96.0567 13.46C97.1207 12.8813 98.3247 12.592 99.6687 12.592C100.901 12.592 101.983 12.8253 102.917 13.292C103.85 13.7587 104.569 14.4213 105.073 15.28C105.595 16.1387 105.857 17.128 105.857 18.248V28.412C105.857 28.58 105.801 28.72 105.689 28.832C105.577 28.944 105.437 29 105.269 29H103.365C103.197 29 103.057 28.9533 102.945 28.86C102.833 28.748 102.777 28.5987 102.777 28.412V27.32C101.489 28.6827 99.958 29.364 98.1847 29.364ZM98.4367 26.368C99.1647 26.368 99.8553 26.1813 100.509 25.808C101.162 25.4347 101.685 24.9493 102.077 24.352C102.487 23.736 102.693 23.092 102.693 22.42V21.86L100.593 22.168C99.454 22.2987 98.7167 22.4013 98.3807 22.476C96.85 22.756 96.0847 23.4187 96.0847 24.464C96.0847 25.0427 96.2993 25.5093 96.7287 25.864C97.158 26.2 97.7273 26.368 98.4367 26.368ZM110.8 29C110.464 29 110.175 28.888 109.932 28.664C109.708 28.4213 109.596 28.132 109.596 27.796V10.8H107.048C106.88 10.8 106.74 10.744 106.628 10.632C106.516 10.52 106.46 10.38 106.46 10.212V8.14C106.46 7.972 106.516 7.832 106.628 7.72C106.74 7.608 106.88 7.552 107.048 7.552H111.752C112.088 7.552 112.368 7.67333 112.592 7.916C112.835 8.14 112.956 8.42 112.956 8.756V25.752H115.504C115.672 25.752 115.812 25.808 115.924 25.92C116.036 26.032 116.092 26.172 116.092 26.34V28.412C116.092 28.58 116.036 28.72 115.924 28.832C115.812 28.944 115.672 29 115.504 29H110.8ZM123.431 29C121.975 29 120.79 28.552 119.875 27.656C118.979 26.76 118.531 25.584 118.531 24.128V16.092H116.599C116.431 16.092 116.291 16.036 116.179 15.924C116.067 15.812 116.011 15.672 116.011 15.504V13.544C116.011 13.376 116.067 13.236 116.179 13.124C116.291 13.012 116.431 12.956 116.599 12.956H118.531V9.932C118.531 9.764 118.587 9.624 118.699 9.512C118.811 9.4 118.951 9.344 119.119 9.344H121.303C121.471 9.344 121.611 9.4 121.723 9.512C121.835 9.624 121.891 9.764 121.891 9.932V12.956H126.623C126.791 12.956 126.931 13.012 127.043 13.124C127.155 13.236 127.211 13.376 127.211 13.544V15.532C127.211 15.7 127.155 15.84 127.043 15.952C126.931 16.064 126.791 16.12 126.623 16.12H121.891V23.988C121.891 24.548 122.05 24.996 122.367 25.332C122.703 25.668 123.142 25.836 123.683 25.836L126.623 25.864C126.791 25.864 126.931 25.92 127.043 26.032C127.155 26.144 127.211 26.284 127.211 26.452V28.412C127.211 28.58 127.155 28.72 127.043 28.832C126.931 28.944 126.791 29 126.623 29H123.431ZM129.993 29C129.825 29 129.685 28.944 129.573 28.832C129.461 28.72 129.405 28.58 129.405 28.412V8.14C129.405 7.972 129.461 7.832 129.573 7.72C129.685 7.608 129.825 7.552 129.993 7.552H132.177C132.345 7.552 132.485 7.608 132.597 7.72C132.709 7.832 132.765 7.972 132.765 8.14V14.328C133.306 13.7867 133.922 13.3667 134.613 13.068C135.304 12.7507 136.013 12.592 136.741 12.592C137.898 12.592 138.916 12.844 139.793 13.348C140.689 13.8333 141.38 14.524 141.865 15.42C142.35 16.2973 142.593 17.3147 142.593 18.472V28.412C142.593 28.58 142.537 28.72 142.425 28.832C142.313 28.944 142.173 29 142.005 29H139.821C139.653 29 139.513 28.944 139.401 28.832C139.289 28.72 139.233 28.58 139.233 28.412V18.892C139.233 17.9027 138.981 17.1467 138.477 16.624C137.973 16.0827 137.264 15.812 136.349 15.812C135.248 15.812 134.37 16.176 133.717 16.904C133.082 17.6133 132.765 18.5933 132.765 19.844V28.412C132.765 28.58 132.709 28.72 132.597 28.832C132.485 28.944 132.345 29 132.177 29H129.993ZM145.202 29C145.034 29 144.894 28.944 144.782 28.832C144.67 28.72 144.614 28.58 144.614 28.412V26.34C144.614 26.172 144.67 26.032 144.782 25.92C144.894 25.808 145.034 25.752 145.202 25.752H147.33V16.12H144.922C144.754 16.12 144.614 16.064 144.502 15.952C144.39 15.84 144.334 15.7 144.334 15.532V13.544C144.334 13.376 144.39 13.236 144.502 13.124C144.614 13.012 144.754 12.956 144.922 12.956H149.262C149.598 12.956 149.878 13.0773 150.102 13.32C150.345 13.544 150.466 13.824 150.466 14.16V15.168L151.978 13.964C152.538 13.516 153.024 13.208 153.434 13.04C153.845 12.8533 154.33 12.76 154.89 12.76H155.758C155.926 12.76 156.066 12.816 156.178 12.928C156.29 13.04 156.346 13.18 156.346 13.348V15.504C156.346 15.672 156.29 15.812 156.178 15.924C156.066 16.036 155.926 16.092 155.758 16.092H155.03C154.545 16.092 154.125 16.176 153.77 16.344C153.416 16.512 152.874 16.8853 152.146 17.464L150.606 18.696V25.752H153.378C153.546 25.752 153.686 25.808 153.798 25.92C153.91 26.032 153.966 26.172 153.966 26.34V28.412C153.966 28.58 153.91 28.72 153.798 28.832C153.686 28.944 153.546 29 153.378 29H145.202ZM163.689 29C162.476 29 161.356 28.7013 160.329 28.104C159.321 27.5067 158.518 26.6947 157.921 25.668C157.324 24.6413 157.025 23.5213 157.025 22.308V19.284C157.025 18.0707 157.324 16.9507 157.921 15.924C158.518 14.8973 159.321 14.0853 160.329 13.488C161.356 12.8907 162.476 12.592 163.689 12.592C164.902 12.592 166.013 12.8907 167.021 13.488C168.048 14.0853 168.86 14.8973 169.457 15.924C170.054 16.9507 170.353 18.0707 170.353 19.284V21.16C170.353 21.496 170.232 21.7853 169.989 22.028C169.765 22.252 169.485 22.364 169.149 22.364H160.385V22.504C160.385 23.4187 160.702 24.2027 161.337 24.856C161.99 25.4907 162.774 25.808 163.689 25.808H168.141C168.309 25.808 168.449 25.864 168.561 25.976C168.673 26.088 168.729 26.228 168.729 26.396V28.412C168.729 28.58 168.673 28.72 168.561 28.832C168.449 28.944 168.309 29 168.141 29H163.689ZM166.993 19.34V19.088C166.993 18.1733 166.666 17.3987 166.013 16.764C165.378 16.1107 164.604 15.784 163.689 15.784C162.774 15.784 161.99 16.1107 161.337 16.764C160.702 17.3987 160.385 18.1733 160.385 19.088V19.34H166.993ZM176.546 29.364C174.978 29.364 173.7 28.9253 172.71 28.048C171.74 27.152 171.254 25.9947 171.254 24.576C171.254 23.288 171.702 22.224 172.598 21.384C173.494 20.5253 174.754 19.9653 176.378 19.704C176.789 19.6667 177.181 19.6107 177.554 19.536C178.861 19.3867 179.654 19.2747 179.934 19.2C180.625 19.088 180.97 18.696 180.97 18.024C180.97 17.3333 180.681 16.7827 180.102 16.372C179.542 15.9427 178.833 15.728 177.974 15.728C176.462 15.728 175.361 16.2787 174.67 17.38C174.521 17.6227 174.344 17.744 174.138 17.744C173.989 17.744 173.868 17.7067 173.774 17.632L172.206 16.568C172.038 16.456 171.954 16.2973 171.954 16.092C171.954 16.036 171.973 15.952 172.01 15.84C172.552 14.8133 173.354 14.02 174.418 13.46C175.482 12.8813 176.686 12.592 178.03 12.592C179.262 12.592 180.345 12.8253 181.278 13.292C182.212 13.7587 182.93 14.4213 183.434 15.28C183.957 16.1387 184.218 17.128 184.218 18.248V28.412C184.218 28.58 184.162 28.72 184.05 28.832C183.938 28.944 183.798 29 183.63 29H181.726C181.558 29 181.418 28.9533 181.306 28.86C181.194 28.748 181.138 28.5987 181.138 28.412V27.32C179.85 28.6827 178.32 29.364 176.546 29.364ZM176.798 26.368C177.526 26.368 178.217 26.1813 178.87 25.808C179.524 25.4347 180.046 24.9493 180.438 24.352C180.849 23.736 181.054 23.092 181.054 22.42V21.86L178.954 22.168C177.816 22.2987 177.078 22.4013 176.742 22.476C175.212 22.756 174.446 23.4187 174.446 24.464C174.446 25.0427 174.661 25.5093 175.09 25.864C175.52 26.2 176.089 26.368 176.798 26.368ZM192.857 29C191.401 29 190.216 28.552 189.301 27.656C188.405 26.76 187.957 25.584 187.957 24.128V16.092H186.025C185.857 16.092 185.717 16.036 185.605 15.924C185.493 15.812 185.437 15.672 185.437 15.504V13.544C185.437 13.376 185.493 13.236 185.605 13.124C185.717 13.012 185.857 12.956 186.025 12.956H187.957V9.932C187.957 9.764 188.013 9.624 188.125 9.512C188.237 9.4 188.377 9.344 188.545 9.344H190.729C190.897 9.344 191.037 9.4 191.149 9.512C191.261 9.624 191.317 9.764 191.317 9.932V12.956H196.049C196.217 12.956 196.357 13.012 196.469 13.124C196.581 13.236 196.637 13.376 196.637 13.544V15.532C196.637 15.7 196.581 15.84 196.469 15.952C196.357 16.064 196.217 16.12 196.049 16.12H191.317V23.988C191.317 24.548 191.476 24.996 191.793 25.332C192.129 25.668 192.568 25.836 193.109 25.836L196.049 25.864C196.217 25.864 196.357 25.92 196.469 26.032C196.581 26.144 196.637 26.284 196.637 26.452V28.412C196.637 28.58 196.581 28.72 196.469 28.832C196.357 28.944 196.217 29 196.049 29H192.857Z" fill="currentColor"/>
</svg>
