<svg width="197" height="42" viewBox="0 0 197 42" fill="none" xmlns="http://www.w3.org/2000/svg">
<rect width="197" height="42" fill="white"/>
<path d="M39.8992 0H2.10083C0.942891 0 0 0.942369 0 2.09966V31.4867C0 32.644 0.942891 33.5864 2.10083 33.5864H7.55967C8.02284 33.5864 8.40331 33.9584 8.40331 34.4295V41.1584C8.40331 41.9024 9.30484 42.2826 9.83419 41.7536L16.7983 33.8757C16.9555 33.6938 17.1871 33.5946 17.4269 33.5946H39.8992C41.0571 33.5946 42 32.6523 42 31.495V2.09966C42 0.942369 41.0571 0 39.8992 0ZM23.1008 28.5439C23.1008 29.0068 22.7286 29.387 22.2572 29.387H19.7345C19.2714 29.387 18.8909 29.015 18.8909 28.5439V26.0226C18.8909 25.5597 19.2631 25.1794 19.7345 25.1794H22.2572C22.7204 25.1794 23.1008 25.5514 23.1008 26.0226V28.5439ZM23.1008 20.1535C23.1008 20.6164 22.7286 20.9966 22.2572 20.9966H19.7345C19.2714 20.9966 18.8909 20.6247 18.8909 20.1535V5.03423C18.8909 4.57132 19.2631 4.19106 19.7345 4.19106H22.2572C22.7204 4.19106 23.1008 4.56305 23.1008 5.03423V20.1535Z" fill="black"/>
<text fill="black" xml:space="preserve" style="white-space: pre" font-family="Miriam Libre" font-size="28" font-weight="bold" letter-spacing="-0.05em"><tspan x="54" y="29.132">localthreat</tspan></text>
</svg>
