<svg width="64" height="64" viewBox="0 0 64 64" fill="none" xmlns="http://www.w3.org/2000/svg">
  <style>
    path {
      fill: black;
    }

    @media (prefers-color-scheme: dark) {
      path {
        fill: white;
      }
    }
  </style>
  <path d="M37 50.3234C37 49.3885 36.0967 48.6497 34.9967 48.6494H29.0033C27.8838 48.6497 27 49.4049 27 50.3234V55.326C27 56.2609 27.9034 56.9997 29.0033 57H34.9967C36.1163 56.9998 37 56.2445 37 55.326V50.3234Z" />
  <path d="M37 8.67259C36.9999 7.73773 36.0966 7.00021 34.9967 7H29.0033C27.8838 7.00028 27.0001 7.75417 27 8.67259V38.6759C27 39.6108 27.9034 40.3496 29.0033 40.3499H34.9967C36.1163 40.3497 37 39.5944 37 38.6759V8.67259Z" />
</svg>
