<svg width="64" height="64" viewBox="0 0 64 64" fill="none" xmlns="http://www.w3.org/2000/svg">
  <style>
    path {
      fill: black;
    }

    @media (prefers-color-scheme: dark) {
      path {
        fill: white;
      }
    }
  </style>
  <path d="M60.7987 2.46155H3.20126C1.43679 2.46155 0 3.78708 0 5.41492V46.7505C0 48.3784 1.43679 49.7039 3.20126 49.7039H11.5195C12.2253 49.7039 12.805 50.2271 12.805 50.8899V60.3547C12.805 61.4011 14.1788 61.936 14.9854 61.1918L25.5975 50.1109C25.8369 49.8551 26.1898 49.7155 26.5553 49.7155H60.7987C62.5632 49.7155 64 48.39 64 46.7622V5.41492C64 3.78708 62.5632 2.46155 60.7987 2.46155ZM35.2013 42.6112C35.2013 43.2623 34.6341 43.7972 33.9157 43.7972H30.0717C29.3659 43.7972 28.7861 43.2739 28.7861 42.6112V39.0648C28.7861 38.4136 29.3533 37.8788 30.0717 37.8788H33.9157C34.6215 37.8788 35.2013 38.402 35.2013 39.0648V42.6112ZM35.2013 30.8093C35.2013 31.4604 34.6341 31.9953 33.9157 31.9953H30.0717C29.3659 31.9953 28.7861 31.4721 28.7861 30.8093V9.54267C28.7861 8.89153 29.3533 8.35667 30.0717 8.35667H33.9157C34.6215 8.35667 35.2013 8.8799 35.2013 9.54267V30.8093Z" />
</svg>
