<?xml version="1.0" standalone="no"?>
<!DOCTYPE svg PUBLIC "-//W3C//DTD SVG 20010904//EN"
 "http://www.w3.org/TR/2001/REC-SVG-20010904/DTD/svg10.dtd">
<svg version="1.0" xmlns="http://www.w3.org/2000/svg"
 width="700.000000pt" height="700.000000pt" viewBox="0 0 700.000000 700.000000"
 preserveAspectRatio="xMidYMid meet">
<metadata>
Created by potrace 1.11, written by Peter Selinger 2001-2013
</metadata>
<g transform="translate(0.000000,700.000000) scale(0.100000,-0.100000)"
fill="#000000" stroke="none">
<path d="M265 6721 c-101 -25 -198 -102 -238 -189 l-22 -47 0 -2340 0 -2340
27 -50 c46 -85 100 -132 190 -168 51 -20 69 -21 563 -22 492 -1 512 -1 545
-21 72 -41 70 -26 70 -627 0 -605 -2 -590 71 -627 42 -22 84 -25 124 -10 29
11 36 18 295 289 91 95 192 201 225 236 205 213 421 438 469 490 179 190 250
255 285 262 20 3 898 7 1951 7 l1915 1 65 31 c75 36 136 94 171 162 l24 47 3
2318 c2 2545 6 2371 -56 2462 -15 22 -52 57 -82 78 -105 73 196 67 -3359 66
-1763 -1 -3219 -4 -3236 -8z m3510 -651 c16 -8 40 -30 52 -49 l23 -34 -2
-1201 c-3 -1183 -3 -1201 -23 -1228 -38 -52 -73 -58 -331 -58 -199 0 -240 3
-267 16 -38 20 -66 50 -73 78 -2 12 -3 560 -2 1218 l3 1197 30 31 c16 17 43
34 60 38 16 5 136 8 265 7 184 -1 241 -4 265 -15z m8 -3233 c16 -10 37 -32 47
-50 18 -29 20 -52 20 -250 0 -256 -5 -277 -77 -309 -39 -17 -65 -19 -291 -16
-242 3 -248 4 -277 26 -17 13 -35 33 -42 45 -16 28 -18 451 -3 493 13 34 51
64 94 74 17 4 137 7 266 6 209 -1 239 -3 263 -19z"/>
</g>
</svg>
